<?xml version="1.0" standalone="no"?>
<!DOCTYPE svg PUBLIC "-//W3C//DTD SVG 20010904//EN"
 "http://www.w3.org/TR/2001/REC-SVG-20010904/DTD/svg10.dtd">
<svg version="1.0" xmlns="http://www.w3.org/2000/svg"
 width="1280.000000pt" height="938.000000pt" viewBox="0 0 1280.000000 938.000000"
 preserveAspectRatio="xMidYMid meet">
<metadata>
Created by potrace 1.15, written by Peter Selinger 2001-2017
</metadata>
<g transform="translate(0.000000,938.000000) scale(0.100000,-0.100000)"
fill="#000000" stroke="none">
<path d="M7190 9369 c-489 -63 -893 -361 -1069 -787 -71 -172 -101 -405 -83
-641 7 -86 15 -174 18 -196 l6 -40 -67 -34 c-43 -22 -80 -50 -103 -79 -86
-106 -105 -124 -126 -119 -12 3 -68 21 -126 41 -256 89 -505 107 -725 51 -33
-8 -100 -35 -150 -59 -169 -83 -290 -214 -359 -390 -40 -100 -56 -187 -56
-314 l0 -114 -77 9 c-43 4 -170 8 -283 8 -178 0 -217 -3 -293 -23 -211 -53
-355 -164 -440 -342 -57 -119 -81 -219 -107 -435 -26 -224 -26 -235 15 -354
52 -151 52 -149 -57 -222 -176 -119 -224 -178 -264 -325 -44 -164 -24 -327 51
-439 14 -20 25 -38 25 -40 0 -3 -43 -5 -95 -5 l-95 0 0 -315 0 -315 -516 0
-515 0 -26 -57 c-98 -221 -163 -535 -163 -788 0 -188 38 -420 98 -596 50 -144
13 -129 308 -129 141 0 254 -3 252 -7 -2 -5 -61 -122 -131 -260 l-127 -253
-490 0 -490 0 0 -385 0 -385 297 -2 296 -3 18 -51 c61 -182 194 -361 345 -465
67 -46 190 -101 279 -126 l80 -22 -1122 0 -1123 -1 0 -180 0 -180 6400 0 6400
0 0 180 0 180 -1442 1 c-1398 0 -1441 1 -1388 18 258 83 456 295 565 604 l28
77 683 0 684 0 0 375 0 375 -620 0 -620 0 0 48 c0 26 -11 416 -25 867 -31
1025 -31 1016 -4 1072 52 108 170 197 277 210 l52 6 0 71 c0 39 -3 155 -7 259
l-6 187 -1339 0 -1338 0 0 -315 0 -315 -926 2 -926 3 -23 62 c-66 176 -207
302 -386 347 -76 19 -233 21 -311 5 -184 -38 -326 -186 -369 -381 l-12 -58
-761 6 c-419 4 -762 8 -763 9 -2 1 -23 548 -23 608 0 14 -10 17 -66 17 -78 0
-77 -5 -6 113 107 178 388 523 454 558 12 7 44 5 100 -6 202 -38 422 -38 573
0 175 44 325 160 402 310 56 108 84 138 120 128 16 -4 91 -7 168 -7 207 2 315
35 454 140 35 27 72 55 82 62 15 12 32 6 133 -48 327 -174 490 -179 811 -25
221 107 366 224 469 380 94 141 102 143 226 65 156 -99 315 -137 529 -127 232
11 416 90 590 254 175 164 293 387 331 625 18 108 8 302 -19 396 -58 202 -198
379 -371 471 -32 17 -61 37 -63 44 -3 6 -3 129 0 272 4 234 3 270 -15 362 -53
264 -191 468 -419 620 -310 207 -733 308 -1093 262z m1649 -8394 c118 -305
315 -507 576 -591 l70 -23 -1010 0 c-972 0 -1008 1 -950 18 274 78 482 285
576 572 l32 99 339 -2 339 -3 28 -70z m-5081 36 l183 -6 38 -90 c108 -262 273
-438 499 -531 l57 -24 -955 1 c-954 0 -955 0 -885 19 262 71 464 278 546 560
l23 80 155 -1 c86 -1 238 -4 339 -8z m2604 -18 c132 -330 305 -515 561 -604
l82 -29 -945 0 -945 0 79 35 c89 38 128 63 203 126 113 95 217 263 265 427
l21 72 334 0 333 0 12 -27z"/>
</g>
</svg>
